<?xml version="1.0" encoding="utf-8"?>
<!-- Generator: Adobe Illustrator 26.0.1, SVG Export Plug-In . SVG Version: 6.00 Build 0)  -->
<svg version="1.1" id="Layer_1" xmlns="http://www.w3.org/2000/svg" xmlns:xlink="http://www.w3.org/1999/xlink" x="0px" y="0px"
	 viewBox="0 0 934.47 781.45" style="enable-background:new 0 0 934.47 781.45;" xml:space="preserve">
<style type="text/css">
	.st0{fill:#2F4668;}
</style>
<path class="st0" d="M136.81,377.52c-7.03-11.26-12.67-23.96-5.43-36.03c13.2-21.99,4.41-45.56,7.79-68.08
	c2.99-19.95-21.12-19.52-24.94-33.39c4.79-11.14,14.59-11.89,23.12-14.68c91.7-30.01,183.13-60.86,275.27-89.44
	c25.94-8.05,53.61-11.74,81.33-2.62c95.88,31.55,191.98,62.47,287.97,93.69c6.52,2.12,13.4,3.89,18.08,13.14
	c-10.33,15.38-28.18,22.49-44.53,28.21c-49.56,17.35-67.97,48.04-62.56,101.93c6.81,67.84-1.15,136.62,3.36,205.03
	c1.55,23.46-9.86,43.41-32.49,54.44c-21.29,10.38-43.9,13.97-67.5,13.69c-31.27-0.37-62.65-3.38-93.75,2.55
	c-4.55-0.14-9.09-0.27-13.64-0.41c-59.12-6.76-118.43-1.16-177.64-2.71c-55.97-1.46-79.7-20.16-92.63-74.81
	c0.34-76.32,0.75-152.64,0.98-228.96c0.12-40.87-0.02-40.87-41.95-55.04c0,12.12-0.19,23.6,0.1,35.06
	c0.12,4.56,0.97,9.18,2.06,13.63C191.05,378.65,184.08,385.95,136.81,377.52z M647.56,470.97c-49.51,34.8-98.06,30.99-146.03,15.91
	c-15.51,16.96-29.43,32.18-44.73,48.91c-16.58-17.77-31.39-33.65-46.68-50.04c-23.82,10-47.75,12.44-72.37,12.33
	c-25.84-0.12-47.28-15.44-73.63-21.43c0,22.4,0.11,42.09-0.02,61.77c-0.28,40.91,0.61,39.25,39.58,42.49
	c47.54,3.95,96.93-14.45,142.82,11.12c1.89,1.05,6.61-1.47,9.2-3.41c15.35-11.45,33.07-7.66,50.13-8.37
	c46.86-1.94,94.63,6.83,141.74-11.77C647.56,537.67,647.56,506.79,647.56,470.97z M456.74,298.32
	c-52.34-71.15-127.49-44.87-196.31-59.45c17.65,28.72,44.35,30.41,68.13,35.7c48.44,10.78,98.57,17.08,128.96,69.88
	c19.58-35.97,47.87-54.82,81.98-59.35c26.58-3.53,51.19-12.49,76.7-18.69c13.35-3.25,28.62-7.83,34.43-27.49
	C583.87,253.87,508.39,226.8,456.74,298.32z M515.01,372.59c-1.06,48.11,21.17,76.73,58.66,80.29c30.57,2.9,66.8-24.22,71.7-53.69
	c6.42-38.59-8.74-59.63-52.52-72.88c-9.84,18.77,10.17,44.93-15.31,60.04C554.27,400.13,535.6,390.23,515.01,372.59z M345.54,323.01
	c10.91,26.36,9.67,46.07-9.49,61.06c-23.88,18.68-44.74,4.57-65.6-9.68c-1.51,50.76,14.2,72,55.38,77.76
	c32.92,4.61,66.24-18.55,79.64-55.36C412.57,377.28,384.35,340.03,345.54,323.01z"/>
</svg>
